<?xml version="1.0" encoding="utf-8" standalone="no"?>
<!DOCTYPE svg PUBLIC "-//W3C//DTD SVG 1.1//EN"
  "http://www.w3.org/Graphics/SVG/1.1/DTD/svg11.dtd">
<svg xmlns:xlink="http://www.w3.org/1999/xlink" width="414.645391pt" height="180.126687pt" viewBox="0 0 414.645391 180.126687" xmlns="http://www.w3.org/2000/svg" version="1.1">
 <metadata>
  <rdf:RDF xmlns:dc="http://purl.org/dc/elements/1.1/" xmlns:cc="http://creativecommons.org/ns#" xmlns:rdf="http://www.w3.org/1999/02/22-rdf-syntax-ns#">
   <cc:Work>
    <dc:type rdf:resource="http://purl.org/dc/dcmitype/StillImage"/>
    <dc:date>2026-06-16T12:32:38.293947</dc:date>
    <dc:format>image/svg+xml</dc:format>
    <dc:creator>
     <cc:Agent>
      <dc:title>Matplotlib v3.10.9, https://matplotlib.org/</dc:title>
     </cc:Agent>
    </dc:creator>
   </cc:Work>
  </rdf:RDF>
 </metadata>
 <defs>
  <style type="text/css">*{stroke-linejoin: round; stroke-linecap: butt}</style>
 </defs>
 <g id="figure_1">
  <g id="patch_1">
   <path d="M 0 180.126687 
L 414.645391 180.126687 
L 414.645391 0 
L 0 0 
z
" style="fill: #ffffff"/>
  </g>
  <g id="axes_1">
   <g id="patch_2">
    <path d="M 30.255391 152.434187 
L 142.675979 152.434187 
L 142.675979 11.062187 
L 30.255391 11.062187 
z
" style="fill: #ffffff"/>
   </g>
   <g id="patch_3">
    <path d="M 30.255391 134.289007 
L 142.675979 134.289007 
L 142.675979 118.140452 
L 30.255391 118.140452 
z
" clip-path="url(#pf2f4458b65)" style="fill: #f7f7f7; stroke: #f7f7f7; stroke-linejoin: miter"/>
   </g>
   <g id="matplotlib.axis_1">
    <g id="xtick_1">
     <g id="line2d_1">
      <defs>
       <path id="md52beb6dbe" d="M 0 0 
L 0 3.5 
" style="stroke: #000000; stroke-width: 0.8"/>
      </defs>
      <g>
       <use xlink:href="#md52beb6dbe" x="32.744891" y="152.434187" style="stroke: #000000; stroke-width: 0.8"/>
      </g>
     </g>
     <g id="text_1">
      <!-- 0 -->
      <g transform="translate(30.869891 164.642) scale(0.075 -0.075)">
       <defs>
        <path id="TimesNewRomanPSMT-30" d="M 231 2094 
Q 231 2819 450 3342 
Q 669 3866 1031 4122 
Q 1313 4325 1613 4325 
Q 2100 4325 2488 3828 
Q 2972 3213 2972 2159 
Q 2972 1422 2759 906 
Q 2547 391 2217 158 
Q 1888 -75 1581 -75 
Q 975 -75 572 641 
Q 231 1244 231 2094 
z
M 844 2016 
Q 844 1141 1059 588 
Q 1238 122 1591 122 
Q 1759 122 1940 273 
Q 2122 425 2216 781 
Q 2359 1319 2359 2297 
Q 2359 3022 2209 3506 
Q 2097 3866 1919 4016 
Q 1791 4119 1609 4119 
Q 1397 4119 1231 3928 
Q 1006 3669 925 3112 
Q 844 2556 844 2016 
z
" transform="scale(0.015625)"/>
       </defs>
       <use xlink:href="#TimesNewRomanPSMT-30"/>
      </g>
     </g>
    </g>
    <g id="xtick_2">
     <g id="line2d_2">
      <g>
       <use xlink:href="#md52beb6dbe" x="85.155421" y="152.434187" style="stroke: #000000; stroke-width: 0.8"/>
      </g>
     </g>
     <g id="text_2">
      <!-- 20 -->
      <g transform="translate(81.405421 164.642) scale(0.075 -0.075)">
       <defs>
        <path id="TimesNewRomanPSMT-32" d="M 2934 816 
L 2638 0 
L 138 0 
L 138 116 
Q 1241 1122 1691 1759 
Q 2141 2397 2141 2925 
Q 2141 3328 1894 3587 
Q 1647 3847 1303 3847 
Q 991 3847 742 3664 
Q 494 3481 375 3128 
L 259 3128 
Q 338 3706 661 4015 
Q 984 4325 1469 4325 
Q 1984 4325 2329 3994 
Q 2675 3663 2675 3213 
Q 2675 2891 2525 2569 
Q 2294 2063 1775 1497 
Q 997 647 803 472 
L 1909 472 
Q 2247 472 2383 497 
Q 2519 522 2628 598 
Q 2738 675 2819 816 
L 2934 816 
z
" transform="scale(0.015625)"/>
       </defs>
       <use xlink:href="#TimesNewRomanPSMT-32"/>
       <use xlink:href="#TimesNewRomanPSMT-30" transform="translate(50 0)"/>
      </g>
     </g>
    </g>
    <g id="xtick_3">
     <g id="line2d_3">
      <g>
       <use xlink:href="#md52beb6dbe" x="137.565952" y="152.434187" style="stroke: #000000; stroke-width: 0.8"/>
      </g>
     </g>
     <g id="text_3">
      <!-- 40 -->
      <g transform="translate(133.815952 164.642) scale(0.075 -0.075)">
       <defs>
        <path id="TimesNewRomanPSMT-34" d="M 2978 1563 
L 2978 1119 
L 2409 1119 
L 2409 0 
L 1894 0 
L 1894 1119 
L 100 1119 
L 100 1519 
L 2066 4325 
L 2409 4325 
L 2409 1563 
L 2978 1563 
z
M 1894 1563 
L 1894 3666 
L 406 1563 
L 1894 1563 
z
" transform="scale(0.015625)"/>
       </defs>
       <use xlink:href="#TimesNewRomanPSMT-34"/>
       <use xlink:href="#TimesNewRomanPSMT-30" transform="translate(50 0)"/>
      </g>
     </g>
    </g>
    <g id="text_4">
     <!-- Lag -->
     <g transform="translate(79.858263 176.132547) scale(0.085 -0.085)">
      <defs>
       <path id="TimesNewRomanPSMT-4c" d="M 3669 1172 
L 3772 1150 
L 3409 0 
L 128 0 
L 128 116 
L 288 116 
Q 556 116 672 291 
Q 738 391 738 753 
L 738 3488 
Q 738 3884 650 3984 
Q 528 4122 288 4122 
L 128 4122 
L 128 4238 
L 2047 4238 
L 2047 4122 
Q 1709 4125 1573 4059 
Q 1438 3994 1388 3894 
Q 1338 3794 1338 3416 
L 1338 753 
Q 1338 494 1388 397 
Q 1425 331 1503 300 
Q 1581 269 1991 269 
L 2300 269 
Q 2788 269 2984 341 
Q 3181 413 3343 595 
Q 3506 778 3669 1172 
z
" transform="scale(0.015625)"/>
       <path id="TimesNewRomanPSMT-61" d="M 1822 413 
Q 1381 72 1269 19 
Q 1100 -59 909 -59 
Q 613 -59 420 144 
Q 228 347 228 678 
Q 228 888 322 1041 
Q 450 1253 767 1440 
Q 1084 1628 1822 1897 
L 1822 2009 
Q 1822 2438 1686 2597 
Q 1550 2756 1291 2756 
Q 1094 2756 978 2650 
Q 859 2544 859 2406 
L 866 2225 
Q 866 2081 792 2003 
Q 719 1925 600 1925 
Q 484 1925 411 2006 
Q 338 2088 338 2228 
Q 338 2497 613 2722 
Q 888 2947 1384 2947 
Q 1766 2947 2009 2819 
Q 2194 2722 2281 2516 
Q 2338 2381 2338 1966 
L 2338 994 
Q 2338 584 2353 492 
Q 2369 400 2405 369 
Q 2441 338 2488 338 
Q 2538 338 2575 359 
Q 2641 400 2828 588 
L 2828 413 
Q 2478 -56 2159 -56 
Q 2006 -56 1915 50 
Q 1825 156 1822 413 
z
M 1822 616 
L 1822 1706 
Q 1350 1519 1213 1441 
Q 966 1303 859 1153 
Q 753 1003 753 825 
Q 753 600 887 451 
Q 1022 303 1197 303 
Q 1434 303 1822 616 
z
" transform="scale(0.015625)"/>
       <path id="TimesNewRomanPSMT-67" d="M 966 1044 
Q 703 1172 562 1401 
Q 422 1631 422 1909 
Q 422 2334 742 2640 
Q 1063 2947 1563 2947 
Q 1972 2947 2272 2747 
L 2878 2747 
Q 3013 2747 3034 2739 
Q 3056 2731 3066 2713 
Q 3084 2684 3084 2613 
Q 3084 2531 3069 2500 
Q 3059 2484 3036 2475 
Q 3013 2466 2878 2466 
L 2506 2466 
Q 2681 2241 2681 1891 
Q 2681 1491 2375 1206 
Q 2069 922 1553 922 
Q 1341 922 1119 984 
Q 981 866 932 777 
Q 884 688 884 625 
Q 884 572 936 522 
Q 988 472 1138 450 
Q 1225 438 1575 428 
Q 2219 413 2409 384 
Q 2700 344 2873 169 
Q 3047 -6 3047 -263 
Q 3047 -616 2716 -925 
Q 2228 -1381 1444 -1381 
Q 841 -1381 425 -1109 
Q 191 -953 191 -784 
Q 191 -709 225 -634 
Q 278 -519 444 -313 
Q 466 -284 763 25 
Q 600 122 533 198 
Q 466 275 466 372 
Q 466 481 555 628 
Q 644 775 966 1044 
z
M 1509 2797 
Q 1278 2797 1122 2612 
Q 966 2428 966 2047 
Q 966 1553 1178 1281 
Q 1341 1075 1591 1075 
Q 1828 1075 1981 1253 
Q 2134 1431 2134 1813 
Q 2134 2309 1919 2591 
Q 1759 2797 1509 2797 
z
M 934 0 
Q 788 -159 713 -296 
Q 638 -434 638 -550 
Q 638 -700 819 -813 
Q 1131 -1006 1722 -1006 
Q 2284 -1006 2551 -807 
Q 2819 -609 2819 -384 
Q 2819 -222 2659 -153 
Q 2497 -84 2016 -72 
Q 1313 -53 934 0 
z
" transform="scale(0.015625)"/>
      </defs>
      <use xlink:href="#TimesNewRomanPSMT-4c"/>
      <use xlink:href="#TimesNewRomanPSMT-61" transform="translate(61.083984 0)"/>
      <use xlink:href="#TimesNewRomanPSMT-67" transform="translate(105.46875 0)"/>
     </g>
    </g>
   </g>
   <g id="matplotlib.axis_2">
    <g id="ytick_1">
     <g id="line2d_4">
      <path d="M 30.255391 126.214729 
L 142.675979 126.214729 
" clip-path="url(#pf2f4458b65)" style="fill: none; stroke: #d9dde7; stroke-opacity: 0.7; stroke-width: 0.35; stroke-linecap: square"/>
     </g>
     <g id="line2d_5">
      <defs>
       <path id="md8a2a11463" d="M 0 0 
L -3.5 0 
" style="stroke: #000000; stroke-width: 0.8"/>
      </defs>
      <g>
       <use xlink:href="#md8a2a11463" x="30.255391" y="126.214729" style="stroke: #000000; stroke-width: 0.8"/>
      </g>
     </g>
     <g id="text_5">
      <!-- 0.0 -->
      <g transform="translate(13.880391 128.818636) scale(0.075 -0.075)">
       <defs>
        <path id="TimesNewRomanPSMT-2e" d="M 800 606 
Q 947 606 1047 504 
Q 1147 403 1147 259 
Q 1147 116 1045 14 
Q 944 -88 800 -88 
Q 656 -88 554 14 
Q 453 116 453 259 
Q 453 406 554 506 
Q 656 606 800 606 
z
" transform="scale(0.015625)"/>
       </defs>
       <use xlink:href="#TimesNewRomanPSMT-30"/>
       <use xlink:href="#TimesNewRomanPSMT-2e" transform="translate(50 0)"/>
       <use xlink:href="#TimesNewRomanPSMT-30" transform="translate(75 0)"/>
      </g>
     </g>
    </g>
    <g id="ytick_2">
     <g id="line2d_6">
      <path d="M 30.255391 98.153505 
L 142.675979 98.153505 
" clip-path="url(#pf2f4458b65)" style="fill: none; stroke: #d9dde7; stroke-opacity: 0.7; stroke-width: 0.35; stroke-linecap: square"/>
     </g>
     <g id="line2d_7">
      <g>
       <use xlink:href="#md8a2a11463" x="30.255391" y="98.153505" style="stroke: #000000; stroke-width: 0.8"/>
      </g>
     </g>
     <g id="text_6">
      <!-- 0.1 -->
      <g transform="translate(13.880391 100.757412) scale(0.075 -0.075)">
       <defs>
        <path id="TimesNewRomanPSMT-31" d="M 750 3822 
L 1781 4325 
L 1884 4325 
L 1884 747 
Q 1884 391 1914 303 
Q 1944 216 2037 169 
Q 2131 122 2419 116 
L 2419 0 
L 825 0 
L 825 116 
Q 1125 122 1212 167 
Q 1300 213 1334 289 
Q 1369 366 1369 747 
L 1369 3034 
Q 1369 3497 1338 3628 
Q 1316 3728 1258 3775 
Q 1200 3822 1119 3822 
Q 1003 3822 797 3725 
L 750 3822 
z
" transform="scale(0.015625)"/>
       </defs>
       <use xlink:href="#TimesNewRomanPSMT-30"/>
       <use xlink:href="#TimesNewRomanPSMT-2e" transform="translate(50 0)"/>
       <use xlink:href="#TimesNewRomanPSMT-31" transform="translate(75 0)"/>
      </g>
     </g>
    </g>
    <g id="ytick_3">
     <g id="line2d_8">
      <path d="M 30.255391 70.092282 
L 142.675979 70.092282 
" clip-path="url(#pf2f4458b65)" style="fill: none; stroke: #d9dde7; stroke-opacity: 0.7; stroke-width: 0.35; stroke-linecap: square"/>
     </g>
     <g id="line2d_9">
      <g>
       <use xlink:href="#md8a2a11463" x="30.255391" y="70.092282" style="stroke: #000000; stroke-width: 0.8"/>
      </g>
     </g>
     <g id="text_7">
      <!-- 0.2 -->
      <g transform="translate(13.880391 72.696188) scale(0.075 -0.075)">
       <use xlink:href="#TimesNewRomanPSMT-30"/>
       <use xlink:href="#TimesNewRomanPSMT-2e" transform="translate(50 0)"/>
       <use xlink:href="#TimesNewRomanPSMT-32" transform="translate(75 0)"/>
      </g>
     </g>
    </g>
    <g id="ytick_4">
     <g id="line2d_10">
      <path d="M 30.255391 42.031058 
L 142.675979 42.031058 
" clip-path="url(#pf2f4458b65)" style="fill: none; stroke: #d9dde7; stroke-opacity: 0.7; stroke-width: 0.35; stroke-linecap: square"/>
     </g>
     <g id="line2d_11">
      <g>
       <use xlink:href="#md8a2a11463" x="30.255391" y="42.031058" style="stroke: #000000; stroke-width: 0.8"/>
      </g>
     </g>
     <g id="text_8">
      <!-- 0.3 -->
      <g transform="translate(13.880391 44.634964) scale(0.075 -0.075)">
       <defs>
        <path id="TimesNewRomanPSMT-33" d="M 325 3431 
Q 506 3859 782 4092 
Q 1059 4325 1472 4325 
Q 1981 4325 2253 3994 
Q 2459 3747 2459 3466 
Q 2459 3003 1878 2509 
Q 2269 2356 2469 2072 
Q 2669 1788 2669 1403 
Q 2669 853 2319 450 
Q 1863 -75 997 -75 
Q 569 -75 414 31 
Q 259 138 259 259 
Q 259 350 332 419 
Q 406 488 509 488 
Q 588 488 669 463 
Q 722 447 909 348 
Q 1097 250 1169 231 
Q 1284 197 1416 197 
Q 1734 197 1970 444 
Q 2206 691 2206 1028 
Q 2206 1275 2097 1509 
Q 2016 1684 1919 1775 
Q 1784 1900 1550 2001 
Q 1316 2103 1072 2103 
L 972 2103 
L 972 2197 
Q 1219 2228 1467 2375 
Q 1716 2522 1828 2728 
Q 1941 2934 1941 3181 
Q 1941 3503 1739 3701 
Q 1538 3900 1238 3900 
Q 753 3900 428 3381 
L 325 3431 
z
" transform="scale(0.015625)"/>
       </defs>
       <use xlink:href="#TimesNewRomanPSMT-30"/>
       <use xlink:href="#TimesNewRomanPSMT-2e" transform="translate(50 0)"/>
       <use xlink:href="#TimesNewRomanPSMT-33" transform="translate(75 0)"/>
      </g>
     </g>
    </g>
    <g id="ytick_5">
     <g id="line2d_12">
      <path d="M 30.255391 13.969834 
L 142.675979 13.969834 
" clip-path="url(#pf2f4458b65)" style="fill: none; stroke: #d9dde7; stroke-opacity: 0.7; stroke-width: 0.35; stroke-linecap: square"/>
     </g>
     <g id="line2d_13">
      <g>
       <use xlink:href="#md8a2a11463" x="30.255391" y="13.969834" style="stroke: #000000; stroke-width: 0.8"/>
      </g>
     </g>
     <g id="text_9">
      <!-- 0.4 -->
      <g transform="translate(13.880391 16.57374) scale(0.075 -0.075)">
       <use xlink:href="#TimesNewRomanPSMT-30"/>
       <use xlink:href="#TimesNewRomanPSMT-2e" transform="translate(50 0)"/>
       <use xlink:href="#TimesNewRomanPSMT-34" transform="translate(75 0)"/>
      </g>
     </g>
    </g>
    <g id="text_10">
     <!-- ACF -->
     <g transform="translate(8.062188 90.015766) rotate(-90) scale(0.085 -0.085)">
      <defs>
       <path id="TimesNewRomanPSMT-41" d="M 2928 1419 
L 1288 1419 
L 1000 750 
Q 894 503 894 381 
Q 894 284 986 211 
Q 1078 138 1384 116 
L 1384 0 
L 50 0 
L 50 116 
Q 316 163 394 238 
Q 553 388 747 847 
L 2238 4334 
L 2347 4334 
L 3822 809 
Q 4000 384 4145 257 
Q 4291 131 4550 116 
L 4550 0 
L 2878 0 
L 2878 116 
Q 3131 128 3220 200 
Q 3309 272 3309 375 
Q 3309 513 3184 809 
L 2928 1419 
z
M 2841 1650 
L 2122 3363 
L 1384 1650 
L 2841 1650 
z
" transform="scale(0.015625)"/>
       <path id="TimesNewRomanPSMT-43" d="M 3853 4334 
L 3950 2894 
L 3853 2894 
Q 3659 3541 3300 3825 
Q 2941 4109 2438 4109 
Q 2016 4109 1675 3895 
Q 1334 3681 1139 3212 
Q 944 2744 944 2047 
Q 944 1472 1128 1050 
Q 1313 628 1683 403 
Q 2053 178 2528 178 
Q 2941 178 3256 354 
Q 3572 531 3950 1056 
L 4047 994 
Q 3728 428 3303 165 
Q 2878 -97 2294 -97 
Q 1241 -97 663 684 
Q 231 1266 231 2053 
Q 231 2688 515 3219 
Q 800 3750 1298 4042 
Q 1797 4334 2388 4334 
Q 2847 4334 3294 4109 
Q 3425 4041 3481 4041 
Q 3566 4041 3628 4100 
Q 3709 4184 3744 4334 
L 3853 4334 
z
" transform="scale(0.015625)"/>
       <path id="TimesNewRomanPSMT-46" d="M 1309 4006 
L 1309 2341 
L 2081 2341 
Q 2347 2341 2470 2458 
Q 2594 2575 2634 2922 
L 2750 2922 
L 2750 1488 
L 2634 1488 
Q 2631 1734 2570 1850 
Q 2509 1966 2401 2023 
Q 2294 2081 2081 2081 
L 1309 2081 
L 1309 750 
Q 1309 428 1350 325 
Q 1381 247 1481 191 
Q 1619 116 1769 116 
L 1922 116 
L 1922 0 
L 103 0 
L 103 116 
L 253 116 
Q 516 116 634 269 
Q 709 369 709 750 
L 709 3488 
Q 709 3809 669 3913 
Q 638 3991 541 4047 
Q 406 4122 253 4122 
L 103 4122 
L 103 4238 
L 3256 4238 
L 3297 3306 
L 3188 3306 
Q 3106 3603 2998 3742 
Q 2891 3881 2733 3943 
Q 2575 4006 2244 4006 
L 1309 4006 
z
" transform="scale(0.015625)"/>
      </defs>
      <use xlink:href="#TimesNewRomanPSMT-41"/>
      <use xlink:href="#TimesNewRomanPSMT-43" transform="translate(72.216797 0)"/>
      <use xlink:href="#TimesNewRomanPSMT-46" transform="translate(138.916016 0)"/>
     </g>
    </g>
   </g>
   <g id="line2d_14">
    <path d="M 30.255391 126.214729 
L 142.675979 126.214729 
" clip-path="url(#pf2f4458b65)" style="fill: none; stroke: #4d4d4d; stroke-width: 0.6; stroke-linecap: square"/>
   </g>
   <g id="LineCollection_1">
    <path d="M 35.365417 126.214729 
L 35.365417 146.008187 
" clip-path="url(#pf2f4458b65)" style="fill: none; stroke: #1f4e79; stroke-width: 0.65"/>
    <path d="M 37.985944 126.214729 
L 37.985944 141.781842 
" clip-path="url(#pf2f4458b65)" style="fill: none; stroke: #1f4e79; stroke-width: 0.65"/>
    <path d="M 40.60647 126.214729 
L 40.60647 119.362278 
" clip-path="url(#pf2f4458b65)" style="fill: none; stroke: #1f4e79; stroke-width: 0.65"/>
    <path d="M 43.226997 126.214729 
L 43.226997 127.905479 
" clip-path="url(#pf2f4458b65)" style="fill: none; stroke: #1f4e79; stroke-width: 0.65"/>
    <path d="M 45.847523 126.214729 
L 45.847523 138.819619 
" clip-path="url(#pf2f4458b65)" style="fill: none; stroke: #1f4e79; stroke-width: 0.65"/>
    <path d="M 48.46805 126.214729 
L 48.46805 125.461404 
" clip-path="url(#pf2f4458b65)" style="fill: none; stroke: #1f4e79; stroke-width: 0.65"/>
    <path d="M 51.088577 126.214729 
L 51.088577 131.508736 
" clip-path="url(#pf2f4458b65)" style="fill: none; stroke: #1f4e79; stroke-width: 0.65"/>
    <path d="M 53.709103 126.214729 
L 53.709103 123.558633 
" clip-path="url(#pf2f4458b65)" style="fill: none; stroke: #1f4e79; stroke-width: 0.65"/>
    <path d="M 56.32963 126.214729 
L 56.32963 131.497155 
" clip-path="url(#pf2f4458b65)" style="fill: none; stroke: #1f4e79; stroke-width: 0.65"/>
    <path d="M 58.950156 126.214729 
L 58.950156 119.006805 
" clip-path="url(#pf2f4458b65)" style="fill: none; stroke: #1f4e79; stroke-width: 0.65"/>
    <path d="M 61.570683 126.214729 
L 61.570683 129.870261 
" clip-path="url(#pf2f4458b65)" style="fill: none; stroke: #1f4e79; stroke-width: 0.65"/>
    <path d="M 64.191209 126.214729 
L 64.191209 115.230172 
" clip-path="url(#pf2f4458b65)" style="fill: none; stroke: #1f4e79; stroke-width: 0.65"/>
    <path d="M 66.811736 126.214729 
L 66.811736 121.599495 
" clip-path="url(#pf2f4458b65)" style="fill: none; stroke: #1f4e79; stroke-width: 0.65"/>
    <path d="M 69.432262 126.214729 
L 69.432262 135.876121 
" clip-path="url(#pf2f4458b65)" style="fill: none; stroke: #1f4e79; stroke-width: 0.65"/>
    <path d="M 72.052789 126.214729 
L 72.052789 137.86477 
" clip-path="url(#pf2f4458b65)" style="fill: none; stroke: #1f4e79; stroke-width: 0.65"/>
    <path d="M 74.673315 126.214729 
L 74.673315 107.928558 
" clip-path="url(#pf2f4458b65)" style="fill: none; stroke: #1f4e79; stroke-width: 0.65"/>
    <path d="M 77.293842 126.214729 
L 77.293842 126.158627 
" clip-path="url(#pf2f4458b65)" style="fill: none; stroke: #1f4e79; stroke-width: 0.65"/>
    <path d="M 79.914368 126.214729 
L 79.914368 142.607421 
" clip-path="url(#pf2f4458b65)" style="fill: none; stroke: #1f4e79; stroke-width: 0.65"/>
    <path d="M 82.534895 126.214729 
L 82.534895 124.560615 
" clip-path="url(#pf2f4458b65)" style="fill: none; stroke: #1f4e79; stroke-width: 0.65"/>
    <path d="M 85.155421 126.214729 
L 85.155421 123.824647 
" clip-path="url(#pf2f4458b65)" style="fill: none; stroke: #1f4e79; stroke-width: 0.65"/>
    <path d="M 87.775948 126.214729 
L 87.775948 134.528531 
" clip-path="url(#pf2f4458b65)" style="fill: none; stroke: #1f4e79; stroke-width: 0.65"/>
    <path d="M 90.396475 126.214729 
L 90.396475 116.080397 
" clip-path="url(#pf2f4458b65)" style="fill: none; stroke: #1f4e79; stroke-width: 0.65"/>
    <path d="M 93.017001 126.214729 
L 93.017001 126.162408 
" clip-path="url(#pf2f4458b65)" style="fill: none; stroke: #1f4e79; stroke-width: 0.65"/>
    <path d="M 95.637528 126.214729 
L 95.637528 129.970078 
" clip-path="url(#pf2f4458b65)" style="fill: none; stroke: #1f4e79; stroke-width: 0.65"/>
    <path d="M 98.258054 126.214729 
L 98.258054 127.732049 
" clip-path="url(#pf2f4458b65)" style="fill: none; stroke: #1f4e79; stroke-width: 0.65"/>
    <path d="M 100.878581 126.214729 
L 100.878581 121.169407 
" clip-path="url(#pf2f4458b65)" style="fill: none; stroke: #1f4e79; stroke-width: 0.65"/>
    <path d="M 103.499107 126.214729 
L 103.499107 118.082472 
" clip-path="url(#pf2f4458b65)" style="fill: none; stroke: #1f4e79; stroke-width: 0.65"/>
    <path d="M 106.119634 126.214729 
L 106.119634 131.702858 
" clip-path="url(#pf2f4458b65)" style="fill: none; stroke: #1f4e79; stroke-width: 0.65"/>
    <path d="M 108.74016 126.214729 
L 108.74016 122.560616 
" clip-path="url(#pf2f4458b65)" style="fill: none; stroke: #1f4e79; stroke-width: 0.65"/>
    <path d="M 111.360687 126.214729 
L 111.360687 122.320363 
" clip-path="url(#pf2f4458b65)" style="fill: none; stroke: #1f4e79; stroke-width: 0.65"/>
    <path d="M 113.981213 126.214729 
L 113.981213 129.328451 
" clip-path="url(#pf2f4458b65)" style="fill: none; stroke: #1f4e79; stroke-width: 0.65"/>
    <path d="M 116.60174 126.214729 
L 116.60174 124.228881 
" clip-path="url(#pf2f4458b65)" style="fill: none; stroke: #1f4e79; stroke-width: 0.65"/>
    <path d="M 119.222266 126.214729 
L 119.222266 130.335029 
" clip-path="url(#pf2f4458b65)" style="fill: none; stroke: #1f4e79; stroke-width: 0.65"/>
    <path d="M 121.842793 126.214729 
L 121.842793 143.464534 
" clip-path="url(#pf2f4458b65)" style="fill: none; stroke: #1f4e79; stroke-width: 0.65"/>
    <path d="M 124.463319 126.214729 
L 124.463319 120.410501 
" clip-path="url(#pf2f4458b65)" style="fill: none; stroke: #1f4e79; stroke-width: 0.65"/>
    <path d="M 127.083846 126.214729 
L 127.083846 120.034812 
" clip-path="url(#pf2f4458b65)" style="fill: none; stroke: #1f4e79; stroke-width: 0.65"/>
    <path d="M 129.704373 126.214729 
L 129.704373 133.851163 
" clip-path="url(#pf2f4458b65)" style="fill: none; stroke: #1f4e79; stroke-width: 0.65"/>
    <path d="M 132.324899 126.214729 
L 132.324899 124.62868 
" clip-path="url(#pf2f4458b65)" style="fill: none; stroke: #1f4e79; stroke-width: 0.65"/>
    <path d="M 134.945426 126.214729 
L 134.945426 118.406065 
" clip-path="url(#pf2f4458b65)" style="fill: none; stroke: #1f4e79; stroke-width: 0.65"/>
    <path d="M 137.565952 126.214729 
L 137.565952 121.588276 
" clip-path="url(#pf2f4458b65)" style="fill: none; stroke: #1f4e79; stroke-width: 0.65"/>
   </g>
   <g id="patch_4">
    <path d="M 30.255391 152.434187 
L 30.255391 11.062187 
" style="fill: none; stroke: #222222; stroke-width: 0.7; stroke-linejoin: miter; stroke-linecap: square"/>
   </g>
   <g id="patch_5">
    <path d="M 30.255391 152.434187 
L 142.675979 152.434187 
" style="fill: none; stroke: #222222; stroke-width: 0.7; stroke-linejoin: miter; stroke-linecap: square"/>
   </g>
   <g id="text_11">
    <!-- (a) -->
    <g transform="translate(31.379597 19.860565) scale(0.09 -0.09)">
     <defs>
      <path id="TimesNewRomanPS-BoldMT-28" d="M 2056 4334 
L 2056 4191 
Q 1731 3978 1578 3775 
Q 1366 3494 1247 3053 
Q 1097 2506 1097 1525 
Q 1097 600 1233 87 
Q 1369 -425 1603 -741 
Q 1766 -959 2056 -1125 
L 2056 -1281 
Q 1303 -1028 779 -248 
Q 256 531 256 1544 
Q 256 2544 778 3314 
Q 1300 4084 2056 4334 
z
" transform="scale(0.015625)"/>
      <path id="TimesNewRomanPS-BoldMT-61" d="M 1828 431 
Q 1294 -41 869 -41 
Q 619 -41 453 123 
Q 288 288 288 534 
Q 288 869 575 1136 
Q 863 1403 1828 1847 
L 1828 2141 
Q 1828 2472 1792 2558 
Q 1756 2644 1656 2708 
Q 1556 2772 1431 2772 
Q 1228 2772 1097 2681 
Q 1016 2625 1016 2550 
Q 1016 2484 1103 2388 
Q 1222 2253 1222 2128 
Q 1222 1975 1108 1867 
Q 994 1759 809 1759 
Q 613 1759 480 1878 
Q 347 1997 347 2156 
Q 347 2381 525 2586 
Q 703 2791 1022 2900 
Q 1341 3009 1684 3009 
Q 2100 3009 2342 2832 
Q 2584 2656 2656 2450 
Q 2700 2319 2700 1847 
L 2700 713 
Q 2700 513 2715 461 
Q 2731 409 2762 384 
Q 2794 359 2834 359 
Q 2916 359 3000 475 
L 3094 400 
Q 2938 169 2770 64 
Q 2603 -41 2391 -41 
Q 2141 -41 2000 76 
Q 1859 194 1828 431 
z
M 1828 659 
L 1828 1638 
Q 1450 1416 1266 1163 
Q 1144 994 1144 822 
Q 1144 678 1247 569 
Q 1325 484 1466 484 
Q 1622 484 1828 659 
z
" transform="scale(0.015625)"/>
      <path id="TimesNewRomanPS-BoldMT-29" d="M 78 -1281 
L 78 -1138 
Q 403 -922 556 -719 
Q 766 -438 888 0 
Q 1038 550 1038 1531 
Q 1038 2456 902 2967 
Q 766 3478 531 3794 
Q 369 4013 78 4178 
L 78 4334 
Q 831 4081 1354 3301 
Q 1878 2522 1878 1509 
Q 1878 513 1354 -257 
Q 831 -1028 78 -1281 
z
" transform="scale(0.015625)"/>
     </defs>
     <use xlink:href="#TimesNewRomanPS-BoldMT-28"/>
     <use xlink:href="#TimesNewRomanPS-BoldMT-61" transform="translate(33.300781 0)"/>
     <use xlink:href="#TimesNewRomanPS-BoldMT-29" transform="translate(83.300781 0)"/>
    </g>
   </g>
   <g id="text_12">
    <!-- Returns -->
    <g transform="translate(73.2442 8.062187) scale(0.085 -0.085)">
     <defs>
      <path id="TimesNewRomanPSMT-52" d="M 4325 0 
L 3194 0 
L 1759 1981 
Q 1600 1975 1500 1975 
Q 1459 1975 1412 1976 
Q 1366 1978 1316 1981 
L 1316 750 
Q 1316 350 1403 253 
Q 1522 116 1759 116 
L 1925 116 
L 1925 0 
L 109 0 
L 109 116 
L 269 116 
Q 538 116 653 291 
Q 719 388 719 750 
L 719 3488 
Q 719 3888 631 3984 
Q 509 4122 269 4122 
L 109 4122 
L 109 4238 
L 1653 4238 
Q 2328 4238 2648 4139 
Q 2969 4041 3192 3777 
Q 3416 3513 3416 3147 
Q 3416 2756 3161 2468 
Q 2906 2181 2372 2063 
L 3247 847 
Q 3547 428 3762 290 
Q 3978 153 4325 116 
L 4325 0 
z
M 1316 2178 
Q 1375 2178 1419 2176 
Q 1463 2175 1491 2175 
Q 2097 2175 2405 2437 
Q 2713 2700 2713 3106 
Q 2713 3503 2464 3751 
Q 2216 4000 1806 4000 
Q 1625 4000 1316 3941 
L 1316 2178 
z
" transform="scale(0.015625)"/>
      <path id="TimesNewRomanPSMT-65" d="M 681 1784 
Q 678 1147 991 784 
Q 1303 422 1725 422 
Q 2006 422 2214 576 
Q 2422 731 2563 1106 
L 2659 1044 
Q 2594 616 2278 264 
Q 1963 -88 1488 -88 
Q 972 -88 605 314 
Q 238 716 238 1394 
Q 238 2128 614 2539 
Q 991 2950 1559 2950 
Q 2041 2950 2350 2633 
Q 2659 2316 2659 1784 
L 681 1784 
z
M 681 1966 
L 2006 1966 
Q 1991 2241 1941 2353 
Q 1863 2528 1708 2628 
Q 1553 2728 1384 2728 
Q 1125 2728 920 2526 
Q 716 2325 681 1966 
z
" transform="scale(0.015625)"/>
      <path id="TimesNewRomanPSMT-74" d="M 1031 3803 
L 1031 2863 
L 1700 2863 
L 1700 2644 
L 1031 2644 
L 1031 788 
Q 1031 509 1111 412 
Q 1191 316 1316 316 
Q 1419 316 1516 380 
Q 1613 444 1666 569 
L 1788 569 
Q 1678 263 1478 108 
Q 1278 -47 1066 -47 
Q 922 -47 784 33 
Q 647 113 581 261 
Q 516 409 516 719 
L 516 2644 
L 63 2644 
L 63 2747 
Q 234 2816 414 2980 
Q 594 3144 734 3369 
Q 806 3488 934 3803 
L 1031 3803 
z
" transform="scale(0.015625)"/>
      <path id="TimesNewRomanPSMT-75" d="M 2709 2863 
L 2709 1128 
Q 2709 631 2732 520 
Q 2756 409 2807 365 
Q 2859 322 2928 322 
Q 3025 322 3147 375 
L 3191 266 
L 2334 -88 
L 2194 -88 
L 2194 519 
Q 1825 119 1631 15 
Q 1438 -88 1222 -88 
Q 981 -88 804 51 
Q 628 191 559 409 
Q 491 628 491 1028 
L 491 2306 
Q 491 2509 447 2587 
Q 403 2666 317 2708 
Q 231 2750 6 2747 
L 6 2863 
L 1009 2863 
L 1009 947 
Q 1009 547 1148 422 
Q 1288 297 1484 297 
Q 1619 297 1789 381 
Q 1959 466 2194 703 
L 2194 2325 
Q 2194 2569 2105 2655 
Q 2016 2741 1734 2747 
L 1734 2863 
L 2709 2863 
z
" transform="scale(0.015625)"/>
      <path id="TimesNewRomanPSMT-72" d="M 1038 2947 
L 1038 2303 
Q 1397 2947 1775 2947 
Q 1947 2947 2059 2842 
Q 2172 2738 2172 2600 
Q 2172 2478 2090 2393 
Q 2009 2309 1897 2309 
Q 1788 2309 1652 2417 
Q 1516 2525 1450 2525 
Q 1394 2525 1328 2463 
Q 1188 2334 1038 2041 
L 1038 669 
Q 1038 431 1097 309 
Q 1138 225 1241 169 
Q 1344 113 1538 113 
L 1538 0 
L 72 0 
L 72 113 
Q 291 113 397 181 
Q 475 231 506 341 
Q 522 394 522 644 
L 522 1753 
Q 522 2253 501 2348 
Q 481 2444 426 2487 
Q 372 2531 291 2531 
Q 194 2531 72 2484 
L 41 2597 
L 906 2947 
L 1038 2947 
z
" transform="scale(0.015625)"/>
      <path id="TimesNewRomanPSMT-6e" d="M 1034 2341 
Q 1538 2947 1994 2947 
Q 2228 2947 2397 2830 
Q 2566 2713 2666 2444 
Q 2734 2256 2734 1869 
L 2734 647 
Q 2734 375 2778 278 
Q 2813 200 2889 156 
Q 2966 113 3172 113 
L 3172 0 
L 1756 0 
L 1756 113 
L 1816 113 
Q 2016 113 2095 173 
Q 2175 234 2206 353 
Q 2219 400 2219 647 
L 2219 1819 
Q 2219 2209 2117 2386 
Q 2016 2563 1775 2563 
Q 1403 2563 1034 2156 
L 1034 647 
Q 1034 356 1069 288 
Q 1113 197 1189 155 
Q 1266 113 1500 113 
L 1500 0 
L 84 0 
L 84 113 
L 147 113 
Q 366 113 442 223 
Q 519 334 519 647 
L 519 1709 
Q 519 2225 495 2337 
Q 472 2450 423 2490 
Q 375 2531 294 2531 
Q 206 2531 84 2484 
L 38 2597 
L 900 2947 
L 1034 2947 
L 1034 2341 
z
" transform="scale(0.015625)"/>
      <path id="TimesNewRomanPSMT-73" d="M 2050 2947 
L 2050 1972 
L 1947 1972 
Q 1828 2431 1642 2597 
Q 1456 2763 1169 2763 
Q 950 2763 815 2647 
Q 681 2531 681 2391 
Q 681 2216 781 2091 
Q 878 1963 1175 1819 
L 1631 1597 
Q 2266 1288 2266 781 
Q 2266 391 1970 151 
Q 1675 -88 1309 -88 
Q 1047 -88 709 6 
Q 606 38 541 38 
Q 469 38 428 -44 
L 325 -44 
L 325 978 
L 428 978 
Q 516 541 762 319 
Q 1009 97 1316 97 
Q 1531 97 1667 223 
Q 1803 350 1803 528 
Q 1803 744 1651 891 
Q 1500 1038 1047 1263 
Q 594 1488 453 1669 
Q 313 1847 313 2119 
Q 313 2472 555 2709 
Q 797 2947 1181 2947 
Q 1350 2947 1591 2875 
Q 1750 2828 1803 2828 
Q 1853 2828 1881 2850 
Q 1909 2872 1947 2947 
L 2050 2947 
z
" transform="scale(0.015625)"/>
     </defs>
     <use xlink:href="#TimesNewRomanPSMT-52"/>
     <use xlink:href="#TimesNewRomanPSMT-65" transform="translate(66.699219 0)"/>
     <use xlink:href="#TimesNewRomanPSMT-74" transform="translate(111.083984 0)"/>
     <use xlink:href="#TimesNewRomanPSMT-75" transform="translate(138.867188 0)"/>
     <use xlink:href="#TimesNewRomanPSMT-72" transform="translate(188.867188 0)"/>
     <use xlink:href="#TimesNewRomanPSMT-6e" transform="translate(222.167969 0)"/>
     <use xlink:href="#TimesNewRomanPSMT-73" transform="translate(272.167969 0)"/>
    </g>
   </g>
  </g>
  <g id="axes_2">
   <g id="patch_6">
    <path d="M 165.160097 152.434187 
L 277.580685 152.434187 
L 277.580685 11.062187 
L 165.160097 11.062187 
z
" style="fill: #ffffff"/>
   </g>
   <g id="patch_7">
    <path d="M 165.160097 134.289007 
L 277.580685 134.289007 
L 277.580685 118.140452 
L 165.160097 118.140452 
z
" clip-path="url(#pf1e7f22c71)" style="fill: #f7f7f7; stroke: #f7f7f7; stroke-linejoin: miter"/>
   </g>
   <g id="matplotlib.axis_3">
    <g id="xtick_4">
     <g id="line2d_15">
      <g>
       <use xlink:href="#md52beb6dbe" x="167.649597" y="152.434187" style="stroke: #000000; stroke-width: 0.8"/>
      </g>
     </g>
     <g id="text_13">
      <!-- 0 -->
      <g transform="translate(165.774597 164.642) scale(0.075 -0.075)">
       <use xlink:href="#TimesNewRomanPSMT-30"/>
      </g>
     </g>
    </g>
    <g id="xtick_5">
     <g id="line2d_16">
      <g>
       <use xlink:href="#md52beb6dbe" x="220.060127" y="152.434187" style="stroke: #000000; stroke-width: 0.8"/>
      </g>
     </g>
     <g id="text_14">
      <!-- 20 -->
      <g transform="translate(216.310127 164.642) scale(0.075 -0.075)">
       <use xlink:href="#TimesNewRomanPSMT-32"/>
       <use xlink:href="#TimesNewRomanPSMT-30" transform="translate(50 0)"/>
      </g>
     </g>
    </g>
    <g id="xtick_6">
     <g id="line2d_17">
      <g>
       <use xlink:href="#md52beb6dbe" x="272.470658" y="152.434187" style="stroke: #000000; stroke-width: 0.8"/>
      </g>
     </g>
     <g id="text_15">
      <!-- 40 -->
      <g transform="translate(268.720658 164.642) scale(0.075 -0.075)">
       <use xlink:href="#TimesNewRomanPSMT-34"/>
       <use xlink:href="#TimesNewRomanPSMT-30" transform="translate(50 0)"/>
      </g>
     </g>
    </g>
    <g id="text_16">
     <!-- Lag -->
     <g transform="translate(214.762969 176.132547) scale(0.085 -0.085)">
      <use xlink:href="#TimesNewRomanPSMT-4c"/>
      <use xlink:href="#TimesNewRomanPSMT-61" transform="translate(61.083984 0)"/>
      <use xlink:href="#TimesNewRomanPSMT-67" transform="translate(105.46875 0)"/>
     </g>
    </g>
   </g>
   <g id="matplotlib.axis_4">
    <g id="ytick_6">
     <g id="line2d_18">
      <path d="M 165.160097 126.214729 
L 277.580685 126.214729 
" clip-path="url(#pf1e7f22c71)" style="fill: none; stroke: #d9dde7; stroke-opacity: 0.7; stroke-width: 0.35; stroke-linecap: square"/>
     </g>
     <g id="line2d_19">
      <g>
       <use xlink:href="#md8a2a11463" x="165.160097" y="126.214729" style="stroke: #000000; stroke-width: 0.8"/>
      </g>
     </g>
    </g>
    <g id="ytick_7">
     <g id="line2d_20">
      <path d="M 165.160097 98.153505 
L 277.580685 98.153505 
" clip-path="url(#pf1e7f22c71)" style="fill: none; stroke: #d9dde7; stroke-opacity: 0.7; stroke-width: 0.35; stroke-linecap: square"/>
     </g>
     <g id="line2d_21">
      <g>
       <use xlink:href="#md8a2a11463" x="165.160097" y="98.153505" style="stroke: #000000; stroke-width: 0.8"/>
      </g>
     </g>
    </g>
    <g id="ytick_8">
     <g id="line2d_22">
      <path d="M 165.160097 70.092282 
L 277.580685 70.092282 
" clip-path="url(#pf1e7f22c71)" style="fill: none; stroke: #d9dde7; stroke-opacity: 0.7; stroke-width: 0.35; stroke-linecap: square"/>
     </g>
     <g id="line2d_23">
      <g>
       <use xlink:href="#md8a2a11463" x="165.160097" y="70.092282" style="stroke: #000000; stroke-width: 0.8"/>
      </g>
     </g>
    </g>
    <g id="ytick_9">
     <g id="line2d_24">
      <path d="M 165.160097 42.031058 
L 277.580685 42.031058 
" clip-path="url(#pf1e7f22c71)" style="fill: none; stroke: #d9dde7; stroke-opacity: 0.7; stroke-width: 0.35; stroke-linecap: square"/>
     </g>
     <g id="line2d_25">
      <g>
       <use xlink:href="#md8a2a11463" x="165.160097" y="42.031058" style="stroke: #000000; stroke-width: 0.8"/>
      </g>
     </g>
    </g>
    <g id="ytick_10">
     <g id="line2d_26">
      <path d="M 165.160097 13.969834 
L 277.580685 13.969834 
" clip-path="url(#pf1e7f22c71)" style="fill: none; stroke: #d9dde7; stroke-opacity: 0.7; stroke-width: 0.35; stroke-linecap: square"/>
     </g>
     <g id="line2d_27">
      <g>
       <use xlink:href="#md8a2a11463" x="165.160097" y="13.969834" style="stroke: #000000; stroke-width: 0.8"/>
      </g>
     </g>
    </g>
   </g>
   <g id="line2d_28">
    <path d="M 165.160097 126.214729 
L 277.580685 126.214729 
" clip-path="url(#pf1e7f22c71)" style="fill: none; stroke: #4d4d4d; stroke-width: 0.6; stroke-linecap: square"/>
   </g>
   <g id="LineCollection_2">
    <path d="M 170.270123 126.214729 
L 170.270123 66.697933 
" clip-path="url(#pf1e7f22c71)" style="fill: none; stroke: #b35c1e; stroke-width: 0.65"/>
    <path d="M 172.89065 126.214729 
L 172.89065 17.488187 
" clip-path="url(#pf1e7f22c71)" style="fill: none; stroke: #b35c1e; stroke-width: 0.65"/>
    <path d="M 175.511176 126.214729 
L 175.511176 67.280484 
" clip-path="url(#pf1e7f22c71)" style="fill: none; stroke: #b35c1e; stroke-width: 0.65"/>
    <path d="M 178.131703 126.214729 
L 178.131703 40.192089 
" clip-path="url(#pf1e7f22c71)" style="fill: none; stroke: #b35c1e; stroke-width: 0.65"/>
    <path d="M 180.752229 126.214729 
L 180.752229 38.2835 
" clip-path="url(#pf1e7f22c71)" style="fill: none; stroke: #b35c1e; stroke-width: 0.65"/>
    <path d="M 183.372756 126.214729 
L 183.372756 36.724638 
" clip-path="url(#pf1e7f22c71)" style="fill: none; stroke: #b35c1e; stroke-width: 0.65"/>
    <path d="M 185.993282 126.214729 
L 185.993282 43.048877 
" clip-path="url(#pf1e7f22c71)" style="fill: none; stroke: #b35c1e; stroke-width: 0.65"/>
    <path d="M 188.613809 126.214729 
L 188.613809 66.883283 
" clip-path="url(#pf1e7f22c71)" style="fill: none; stroke: #b35c1e; stroke-width: 0.65"/>
    <path d="M 191.234336 126.214729 
L 191.234336 44.056809 
" clip-path="url(#pf1e7f22c71)" style="fill: none; stroke: #b35c1e; stroke-width: 0.65"/>
    <path d="M 193.854862 126.214729 
L 193.854862 57.839846 
" clip-path="url(#pf1e7f22c71)" style="fill: none; stroke: #b35c1e; stroke-width: 0.65"/>
    <path d="M 196.475389 126.214729 
L 196.475389 20.994187 
" clip-path="url(#pf1e7f22c71)" style="fill: none; stroke: #b35c1e; stroke-width: 0.65"/>
    <path d="M 199.095915 126.214729 
L 199.095915 51.11427 
" clip-path="url(#pf1e7f22c71)" style="fill: none; stroke: #b35c1e; stroke-width: 0.65"/>
    <path d="M 201.716442 126.214729 
L 201.716442 63.03355 
" clip-path="url(#pf1e7f22c71)" style="fill: none; stroke: #b35c1e; stroke-width: 0.65"/>
    <path d="M 204.336968 126.214729 
L 204.336968 86.223907 
" clip-path="url(#pf1e7f22c71)" style="fill: none; stroke: #b35c1e; stroke-width: 0.65"/>
    <path d="M 206.957495 126.214729 
L 206.957495 62.723661 
" clip-path="url(#pf1e7f22c71)" style="fill: none; stroke: #b35c1e; stroke-width: 0.65"/>
    <path d="M 209.578021 126.214729 
L 209.578021 55.702763 
" clip-path="url(#pf1e7f22c71)" style="fill: none; stroke: #b35c1e; stroke-width: 0.65"/>
    <path d="M 212.198548 126.214729 
L 212.198548 54.903454 
" clip-path="url(#pf1e7f22c71)" style="fill: none; stroke: #b35c1e; stroke-width: 0.65"/>
    <path d="M 214.819074 126.214729 
L 214.819074 55.620277 
" clip-path="url(#pf1e7f22c71)" style="fill: none; stroke: #b35c1e; stroke-width: 0.65"/>
    <path d="M 217.439601 126.214729 
L 217.439601 76.367156 
" clip-path="url(#pf1e7f22c71)" style="fill: none; stroke: #b35c1e; stroke-width: 0.65"/>
    <path d="M 220.060127 126.214729 
L 220.060127 66.024887 
" clip-path="url(#pf1e7f22c71)" style="fill: none; stroke: #b35c1e; stroke-width: 0.65"/>
    <path d="M 222.680654 126.214729 
L 222.680654 60.039861 
" clip-path="url(#pf1e7f22c71)" style="fill: none; stroke: #b35c1e; stroke-width: 0.65"/>
    <path d="M 225.30118 126.214729 
L 225.30118 72.82896 
" clip-path="url(#pf1e7f22c71)" style="fill: none; stroke: #b35c1e; stroke-width: 0.65"/>
    <path d="M 227.921707 126.214729 
L 227.921707 53.48042 
" clip-path="url(#pf1e7f22c71)" style="fill: none; stroke: #b35c1e; stroke-width: 0.65"/>
    <path d="M 230.542233 126.214729 
L 230.542233 83.572991 
" clip-path="url(#pf1e7f22c71)" style="fill: none; stroke: #b35c1e; stroke-width: 0.65"/>
    <path d="M 233.16276 126.214729 
L 233.16276 76.674997 
" clip-path="url(#pf1e7f22c71)" style="fill: none; stroke: #b35c1e; stroke-width: 0.65"/>
    <path d="M 235.783287 126.214729 
L 235.783287 79.775273 
" clip-path="url(#pf1e7f22c71)" style="fill: none; stroke: #b35c1e; stroke-width: 0.65"/>
    <path d="M 238.403813 126.214729 
L 238.403813 50.799572 
" clip-path="url(#pf1e7f22c71)" style="fill: none; stroke: #b35c1e; stroke-width: 0.65"/>
    <path d="M 241.02434 126.214729 
L 241.02434 61.330719 
" clip-path="url(#pf1e7f22c71)" style="fill: none; stroke: #b35c1e; stroke-width: 0.65"/>
    <path d="M 243.644866 126.214729 
L 243.644866 70.674537 
" clip-path="url(#pf1e7f22c71)" style="fill: none; stroke: #b35c1e; stroke-width: 0.65"/>
    <path d="M 246.265393 126.214729 
L 246.265393 85.382768 
" clip-path="url(#pf1e7f22c71)" style="fill: none; stroke: #b35c1e; stroke-width: 0.65"/>
    <path d="M 248.885919 126.214729 
L 248.885919 84.874478 
" clip-path="url(#pf1e7f22c71)" style="fill: none; stroke: #b35c1e; stroke-width: 0.65"/>
    <path d="M 251.506446 126.214729 
L 251.506446 63.769982 
" clip-path="url(#pf1e7f22c71)" style="fill: none; stroke: #b35c1e; stroke-width: 0.65"/>
    <path d="M 254.126972 126.214729 
L 254.126972 82.927781 
" clip-path="url(#pf1e7f22c71)" style="fill: none; stroke: #b35c1e; stroke-width: 0.65"/>
    <path d="M 256.747499 126.214729 
L 256.747499 56.605453 
" clip-path="url(#pf1e7f22c71)" style="fill: none; stroke: #b35c1e; stroke-width: 0.65"/>
    <path d="M 259.368025 126.214729 
L 259.368025 93.649419 
" clip-path="url(#pf1e7f22c71)" style="fill: none; stroke: #b35c1e; stroke-width: 0.65"/>
    <path d="M 261.988552 126.214729 
L 261.988552 83.457763 
" clip-path="url(#pf1e7f22c71)" style="fill: none; stroke: #b35c1e; stroke-width: 0.65"/>
    <path d="M 264.609078 126.214729 
L 264.609078 89.577288 
" clip-path="url(#pf1e7f22c71)" style="fill: none; stroke: #b35c1e; stroke-width: 0.65"/>
    <path d="M 267.229605 126.214729 
L 267.229605 76.946943 
" clip-path="url(#pf1e7f22c71)" style="fill: none; stroke: #b35c1e; stroke-width: 0.65"/>
    <path d="M 269.850131 126.214729 
L 269.850131 84.382819 
" clip-path="url(#pf1e7f22c71)" style="fill: none; stroke: #b35c1e; stroke-width: 0.65"/>
    <path d="M 272.470658 126.214729 
L 272.470658 91.428957 
" clip-path="url(#pf1e7f22c71)" style="fill: none; stroke: #b35c1e; stroke-width: 0.65"/>
   </g>
   <g id="patch_8">
    <path d="M 165.160097 152.434187 
L 165.160097 11.062187 
" style="fill: none; stroke: #222222; stroke-width: 0.7; stroke-linejoin: miter; stroke-linecap: square"/>
   </g>
   <g id="patch_9">
    <path d="M 165.160097 152.434187 
L 277.580685 152.434187 
" style="fill: none; stroke: #222222; stroke-width: 0.7; stroke-linejoin: miter; stroke-linecap: square"/>
   </g>
   <g id="text_17">
    <!-- (b) -->
    <g transform="translate(166.284302 19.860565) scale(0.09 -0.09)">
     <defs>
      <path id="TimesNewRomanPS-BoldMT-62" d="M 1347 4238 
L 1347 2628 
Q 1716 3009 2153 3009 
Q 2453 3009 2718 2832 
Q 2984 2656 3134 2331 
Q 3284 2006 3284 1581 
Q 3284 1103 3093 712 
Q 2903 322 2584 117 
Q 2266 -88 1856 -88 
Q 1619 -88 1434 -12 
Q 1250 63 1072 231 
L 588 -84 
L 481 -84 
L 481 3631 
Q 481 3884 459 3944 
Q 428 4031 361 4073 
Q 294 4116 134 4122 
L 134 4238 
L 1347 4238 
z
M 1347 2350 
L 1347 1050 
Q 1347 653 1366 544 
Q 1397 359 1515 245 
Q 1634 131 1819 131 
Q 1978 131 2092 222 
Q 2206 313 2282 581 
Q 2359 850 2359 1550 
Q 2359 2222 2191 2472 
Q 2069 2653 1863 2653 
Q 1594 2653 1347 2350 
z
" transform="scale(0.015625)"/>
     </defs>
     <use xlink:href="#TimesNewRomanPS-BoldMT-28"/>
     <use xlink:href="#TimesNewRomanPS-BoldMT-62" transform="translate(33.300781 0)"/>
     <use xlink:href="#TimesNewRomanPS-BoldMT-29" transform="translate(88.916016 0)"/>
    </g>
   </g>
   <g id="text_18">
    <!-- Squared returns -->
    <g transform="translate(194.579453 8.062187) scale(0.085 -0.085)">
     <defs>
      <path id="TimesNewRomanPSMT-53" d="M 2934 4334 
L 2934 2869 
L 2819 2869 
Q 2763 3291 2617 3541 
Q 2472 3791 2203 3937 
Q 1934 4084 1647 4084 
Q 1322 4084 1109 3886 
Q 897 3688 897 3434 
Q 897 3241 1031 3081 
Q 1225 2847 1953 2456 
Q 2547 2138 2764 1967 
Q 2981 1797 3098 1565 
Q 3216 1334 3216 1081 
Q 3216 600 2842 251 
Q 2469 -97 1881 -97 
Q 1697 -97 1534 -69 
Q 1438 -53 1133 45 
Q 828 144 747 144 
Q 669 144 623 97 
Q 578 50 556 -97 
L 441 -97 
L 441 1356 
L 556 1356 
Q 638 900 775 673 
Q 913 447 1195 297 
Q 1478 147 1816 147 
Q 2206 147 2432 353 
Q 2659 559 2659 841 
Q 2659 997 2573 1156 
Q 2488 1316 2306 1453 
Q 2184 1547 1640 1851 
Q 1097 2156 867 2337 
Q 638 2519 519 2737 
Q 400 2956 400 3219 
Q 400 3675 750 4004 
Q 1100 4334 1641 4334 
Q 1978 4334 2356 4169 
Q 2531 4091 2603 4091 
Q 2684 4091 2736 4139 
Q 2788 4188 2819 4334 
L 2934 4334 
z
" transform="scale(0.015625)"/>
      <path id="TimesNewRomanPSMT-71" d="M 2734 2947 
L 2734 -734 
Q 2734 -1009 2771 -1087 
Q 2809 -1166 2889 -1209 
Q 2969 -1253 3200 -1253 
L 3200 -1369 
L 1756 -1369 
L 1756 -1253 
L 1816 -1253 
Q 1991 -1253 2081 -1203 
Q 2144 -1169 2181 -1080 
Q 2219 -991 2219 -734 
L 2219 497 
Q 1934 159 1721 35 
Q 1509 -88 1281 -88 
Q 866 -88 539 290 
Q 213 669 213 1303 
Q 213 2031 644 2489 
Q 1075 2947 1684 2947 
Q 1863 2947 2013 2897 
Q 2163 2847 2281 2747 
Q 2463 2834 2628 2947 
L 2734 2947 
z
M 2219 694 
L 2219 2038 
Q 2219 2272 2158 2406 
Q 2097 2541 1940 2634 
Q 1784 2728 1588 2728 
Q 1238 2728 988 2431 
Q 738 2134 738 1531 
Q 738 953 992 653 
Q 1247 353 1606 353 
Q 1791 353 1934 433 
Q 2078 513 2219 694 
z
" transform="scale(0.015625)"/>
      <path id="TimesNewRomanPSMT-64" d="M 2222 322 
Q 2013 103 1813 7 
Q 1613 -88 1381 -88 
Q 913 -88 563 304 
Q 213 697 213 1313 
Q 213 1928 600 2439 
Q 988 2950 1597 2950 
Q 1975 2950 2222 2709 
L 2222 3238 
Q 2222 3728 2198 3840 
Q 2175 3953 2125 3993 
Q 2075 4034 2000 4034 
Q 1919 4034 1784 3984 
L 1744 4094 
L 2597 4444 
L 2738 4444 
L 2738 1134 
Q 2738 631 2761 520 
Q 2784 409 2836 365 
Q 2888 322 2956 322 
Q 3041 322 3181 375 
L 3216 266 
L 2366 -88 
L 2222 -88 
L 2222 322 
z
M 2222 541 
L 2222 2016 
Q 2203 2228 2109 2403 
Q 2016 2578 1861 2667 
Q 1706 2756 1559 2756 
Q 1284 2756 1069 2509 
Q 784 2184 784 1559 
Q 784 928 1059 592 
Q 1334 256 1672 256 
Q 1956 256 2222 541 
z
" transform="scale(0.015625)"/>
      <path id="TimesNewRomanPSMT-20" transform="scale(0.015625)"/>
     </defs>
     <use xlink:href="#TimesNewRomanPSMT-53"/>
     <use xlink:href="#TimesNewRomanPSMT-71" transform="translate(55.615234 0)"/>
     <use xlink:href="#TimesNewRomanPSMT-75" transform="translate(105.615234 0)"/>
     <use xlink:href="#TimesNewRomanPSMT-61" transform="translate(155.615234 0)"/>
     <use xlink:href="#TimesNewRomanPSMT-72" transform="translate(200 0)"/>
     <use xlink:href="#TimesNewRomanPSMT-65" transform="translate(233.300781 0)"/>
     <use xlink:href="#TimesNewRomanPSMT-64" transform="translate(277.685547 0)"/>
     <use xlink:href="#TimesNewRomanPSMT-20" transform="translate(327.685547 0)"/>
     <use xlink:href="#TimesNewRomanPSMT-72" transform="translate(352.685547 0)"/>
     <use xlink:href="#TimesNewRomanPSMT-65" transform="translate(385.986328 0)"/>
     <use xlink:href="#TimesNewRomanPSMT-74" transform="translate(430.371094 0)"/>
     <use xlink:href="#TimesNewRomanPSMT-75" transform="translate(458.154297 0)"/>
     <use xlink:href="#TimesNewRomanPSMT-72" transform="translate(508.154297 0)"/>
     <use xlink:href="#TimesNewRomanPSMT-6e" transform="translate(541.455078 0)"/>
     <use xlink:href="#TimesNewRomanPSMT-73" transform="translate(591.455078 0)"/>
    </g>
   </g>
  </g>
  <g id="axes_3">
   <g id="patch_10">
    <path d="M 300.064802 152.434187 
L 412.485391 152.434187 
L 412.485391 11.062187 
L 300.064802 11.062187 
z
" style="fill: #ffffff"/>
   </g>
   <g id="patch_11">
    <path d="M 300.064802 134.289007 
L 412.485391 134.289007 
L 412.485391 118.140452 
L 300.064802 118.140452 
z
" clip-path="url(#pbc873f1786)" style="fill: #f7f7f7; stroke: #f7f7f7; stroke-linejoin: miter"/>
   </g>
   <g id="matplotlib.axis_5">
    <g id="xtick_7">
     <g id="line2d_29">
      <g>
       <use xlink:href="#md52beb6dbe" x="302.554303" y="152.434187" style="stroke: #000000; stroke-width: 0.8"/>
      </g>
     </g>
     <g id="text_19">
      <!-- 0 -->
      <g transform="translate(300.679303 164.642) scale(0.075 -0.075)">
       <use xlink:href="#TimesNewRomanPSMT-30"/>
      </g>
     </g>
    </g>
    <g id="xtick_8">
     <g id="line2d_30">
      <g>
       <use xlink:href="#md52beb6dbe" x="354.964833" y="152.434187" style="stroke: #000000; stroke-width: 0.8"/>
      </g>
     </g>
     <g id="text_20">
      <!-- 20 -->
      <g transform="translate(351.214833 164.642) scale(0.075 -0.075)">
       <use xlink:href="#TimesNewRomanPSMT-32"/>
       <use xlink:href="#TimesNewRomanPSMT-30" transform="translate(50 0)"/>
      </g>
     </g>
    </g>
    <g id="xtick_9">
     <g id="line2d_31">
      <g>
       <use xlink:href="#md52beb6dbe" x="407.375364" y="152.434187" style="stroke: #000000; stroke-width: 0.8"/>
      </g>
     </g>
     <g id="text_21">
      <!-- 40 -->
      <g transform="translate(403.625364 164.642) scale(0.075 -0.075)">
       <use xlink:href="#TimesNewRomanPSMT-34"/>
       <use xlink:href="#TimesNewRomanPSMT-30" transform="translate(50 0)"/>
      </g>
     </g>
    </g>
    <g id="text_22">
     <!-- Lag -->
     <g transform="translate(349.667675 176.132547) scale(0.085 -0.085)">
      <use xlink:href="#TimesNewRomanPSMT-4c"/>
      <use xlink:href="#TimesNewRomanPSMT-61" transform="translate(61.083984 0)"/>
      <use xlink:href="#TimesNewRomanPSMT-67" transform="translate(105.46875 0)"/>
     </g>
    </g>
   </g>
   <g id="matplotlib.axis_6">
    <g id="ytick_11">
     <g id="line2d_32">
      <path d="M 300.064802 126.214729 
L 412.485391 126.214729 
" clip-path="url(#pbc873f1786)" style="fill: none; stroke: #d9dde7; stroke-opacity: 0.7; stroke-width: 0.35; stroke-linecap: square"/>
     </g>
     <g id="line2d_33">
      <g>
       <use xlink:href="#md8a2a11463" x="300.064802" y="126.214729" style="stroke: #000000; stroke-width: 0.8"/>
      </g>
     </g>
    </g>
    <g id="ytick_12">
     <g id="line2d_34">
      <path d="M 300.064802 98.153505 
L 412.485391 98.153505 
" clip-path="url(#pbc873f1786)" style="fill: none; stroke: #d9dde7; stroke-opacity: 0.7; stroke-width: 0.35; stroke-linecap: square"/>
     </g>
     <g id="line2d_35">
      <g>
       <use xlink:href="#md8a2a11463" x="300.064802" y="98.153505" style="stroke: #000000; stroke-width: 0.8"/>
      </g>
     </g>
    </g>
    <g id="ytick_13">
     <g id="line2d_36">
      <path d="M 300.064802 70.092282 
L 412.485391 70.092282 
" clip-path="url(#pbc873f1786)" style="fill: none; stroke: #d9dde7; stroke-opacity: 0.7; stroke-width: 0.35; stroke-linecap: square"/>
     </g>
     <g id="line2d_37">
      <g>
       <use xlink:href="#md8a2a11463" x="300.064802" y="70.092282" style="stroke: #000000; stroke-width: 0.8"/>
      </g>
     </g>
    </g>
    <g id="ytick_14">
     <g id="line2d_38">
      <path d="M 300.064802 42.031058 
L 412.485391 42.031058 
" clip-path="url(#pbc873f1786)" style="fill: none; stroke: #d9dde7; stroke-opacity: 0.7; stroke-width: 0.35; stroke-linecap: square"/>
     </g>
     <g id="line2d_39">
      <g>
       <use xlink:href="#md8a2a11463" x="300.064802" y="42.031058" style="stroke: #000000; stroke-width: 0.8"/>
      </g>
     </g>
    </g>
    <g id="ytick_15">
     <g id="line2d_40">
      <path d="M 300.064802 13.969834 
L 412.485391 13.969834 
" clip-path="url(#pbc873f1786)" style="fill: none; stroke: #d9dde7; stroke-opacity: 0.7; stroke-width: 0.35; stroke-linecap: square"/>
     </g>
     <g id="line2d_41">
      <g>
       <use xlink:href="#md8a2a11463" x="300.064802" y="13.969834" style="stroke: #000000; stroke-width: 0.8"/>
      </g>
     </g>
    </g>
   </g>
   <g id="line2d_42">
    <path d="M 300.064802 126.214729 
L 412.485391 126.214729 
" clip-path="url(#pbc873f1786)" style="fill: none; stroke: #4d4d4d; stroke-width: 0.6; stroke-linecap: square"/>
   </g>
   <g id="LineCollection_3">
    <path d="M 305.174829 126.214729 
L 305.174829 53.299324 
" clip-path="url(#pbc873f1786)" style="fill: none; stroke: #2d6a4f; stroke-width: 0.65"/>
    <path d="M 307.795356 126.214729 
L 307.795356 25.772206 
" clip-path="url(#pbc873f1786)" style="fill: none; stroke: #2d6a4f; stroke-width: 0.65"/>
    <path d="M 310.415882 126.214729 
L 310.415882 40.10364 
" clip-path="url(#pbc873f1786)" style="fill: none; stroke: #2d6a4f; stroke-width: 0.65"/>
    <path d="M 313.036409 126.214729 
L 313.036409 36.105751 
" clip-path="url(#pbc873f1786)" style="fill: none; stroke: #2d6a4f; stroke-width: 0.65"/>
    <path d="M 315.656935 126.214729 
L 315.656935 31.226044 
" clip-path="url(#pbc873f1786)" style="fill: none; stroke: #2d6a4f; stroke-width: 0.65"/>
    <path d="M 318.277462 126.214729 
L 318.277462 34.780232 
" clip-path="url(#pbc873f1786)" style="fill: none; stroke: #2d6a4f; stroke-width: 0.65"/>
    <path d="M 320.897988 126.214729 
L 320.897988 36.44026 
" clip-path="url(#pbc873f1786)" style="fill: none; stroke: #2d6a4f; stroke-width: 0.65"/>
    <path d="M 323.518515 126.214729 
L 323.518515 43.055585 
" clip-path="url(#pbc873f1786)" style="fill: none; stroke: #2d6a4f; stroke-width: 0.65"/>
    <path d="M 326.139041 126.214729 
L 326.139041 45.136062 
" clip-path="url(#pbc873f1786)" style="fill: none; stroke: #2d6a4f; stroke-width: 0.65"/>
    <path d="M 328.759568 126.214729 
L 328.759568 42.451347 
" clip-path="url(#pbc873f1786)" style="fill: none; stroke: #2d6a4f; stroke-width: 0.65"/>
    <path d="M 331.380094 126.214729 
L 331.380094 37.550962 
" clip-path="url(#pbc873f1786)" style="fill: none; stroke: #2d6a4f; stroke-width: 0.65"/>
    <path d="M 334.000621 126.214729 
L 334.000621 43.716251 
" clip-path="url(#pbc873f1786)" style="fill: none; stroke: #2d6a4f; stroke-width: 0.65"/>
    <path d="M 336.621148 126.214729 
L 336.621148 50.897156 
" clip-path="url(#pbc873f1786)" style="fill: none; stroke: #2d6a4f; stroke-width: 0.65"/>
    <path d="M 339.241674 126.214729 
L 339.241674 60.878893 
" clip-path="url(#pbc873f1786)" style="fill: none; stroke: #2d6a4f; stroke-width: 0.65"/>
    <path d="M 341.862201 126.214729 
L 341.862201 54.230359 
" clip-path="url(#pbc873f1786)" style="fill: none; stroke: #2d6a4f; stroke-width: 0.65"/>
    <path d="M 344.482727 126.214729 
L 344.482727 50.734135 
" clip-path="url(#pbc873f1786)" style="fill: none; stroke: #2d6a4f; stroke-width: 0.65"/>
    <path d="M 347.103254 126.214729 
L 347.103254 52.819646 
" clip-path="url(#pbc873f1786)" style="fill: none; stroke: #2d6a4f; stroke-width: 0.65"/>
    <path d="M 349.72378 126.214729 
L 349.72378 47.341098 
" clip-path="url(#pbc873f1786)" style="fill: none; stroke: #2d6a4f; stroke-width: 0.65"/>
    <path d="M 352.344307 126.214729 
L 352.344307 60.023927 
" clip-path="url(#pbc873f1786)" style="fill: none; stroke: #2d6a4f; stroke-width: 0.65"/>
    <path d="M 354.964833 126.214729 
L 354.964833 55.70968 
" clip-path="url(#pbc873f1786)" style="fill: none; stroke: #2d6a4f; stroke-width: 0.65"/>
    <path d="M 357.58536 126.214729 
L 357.58536 56.389337 
" clip-path="url(#pbc873f1786)" style="fill: none; stroke: #2d6a4f; stroke-width: 0.65"/>
    <path d="M 360.205886 126.214729 
L 360.205886 60.261276 
" clip-path="url(#pbc873f1786)" style="fill: none; stroke: #2d6a4f; stroke-width: 0.65"/>
    <path d="M 362.826413 126.214729 
L 362.826413 57.502772 
" clip-path="url(#pbc873f1786)" style="fill: none; stroke: #2d6a4f; stroke-width: 0.65"/>
    <path d="M 365.446939 126.214729 
L 365.446939 67.58107 
" clip-path="url(#pbc873f1786)" style="fill: none; stroke: #2d6a4f; stroke-width: 0.65"/>
    <path d="M 368.067466 126.214729 
L 368.067466 63.500906 
" clip-path="url(#pbc873f1786)" style="fill: none; stroke: #2d6a4f; stroke-width: 0.65"/>
    <path d="M 370.687992 126.214729 
L 370.687992 67.467198 
" clip-path="url(#pbc873f1786)" style="fill: none; stroke: #2d6a4f; stroke-width: 0.65"/>
    <path d="M 373.308519 126.214729 
L 373.308519 51.205917 
" clip-path="url(#pbc873f1786)" style="fill: none; stroke: #2d6a4f; stroke-width: 0.65"/>
    <path d="M 375.929045 126.214729 
L 375.929045 61.269374 
" clip-path="url(#pbc873f1786)" style="fill: none; stroke: #2d6a4f; stroke-width: 0.65"/>
    <path d="M 378.549572 126.214729 
L 378.549572 57.230904 
" clip-path="url(#pbc873f1786)" style="fill: none; stroke: #2d6a4f; stroke-width: 0.65"/>
    <path d="M 381.170099 126.214729 
L 381.170099 69.804947 
" clip-path="url(#pbc873f1786)" style="fill: none; stroke: #2d6a4f; stroke-width: 0.65"/>
    <path d="M 383.790625 126.214729 
L 383.790625 68.281501 
" clip-path="url(#pbc873f1786)" style="fill: none; stroke: #2d6a4f; stroke-width: 0.65"/>
    <path d="M 386.411152 126.214729 
L 386.411152 60.199702 
" clip-path="url(#pbc873f1786)" style="fill: none; stroke: #2d6a4f; stroke-width: 0.65"/>
    <path d="M 389.031678 126.214729 
L 389.031678 65.627432 
" clip-path="url(#pbc873f1786)" style="fill: none; stroke: #2d6a4f; stroke-width: 0.65"/>
    <path d="M 391.652205 126.214729 
L 391.652205 63.933756 
" clip-path="url(#pbc873f1786)" style="fill: none; stroke: #2d6a4f; stroke-width: 0.65"/>
    <path d="M 394.272731 126.214729 
L 394.272731 70.930875 
" clip-path="url(#pbc873f1786)" style="fill: none; stroke: #2d6a4f; stroke-width: 0.65"/>
    <path d="M 396.893258 126.214729 
L 396.893258 68.942883 
" clip-path="url(#pbc873f1786)" style="fill: none; stroke: #2d6a4f; stroke-width: 0.65"/>
    <path d="M 399.513784 126.214729 
L 399.513784 68.89763 
" clip-path="url(#pbc873f1786)" style="fill: none; stroke: #2d6a4f; stroke-width: 0.65"/>
    <path d="M 402.134311 126.214729 
L 402.134311 69.067193 
" clip-path="url(#pbc873f1786)" style="fill: none; stroke: #2d6a4f; stroke-width: 0.65"/>
    <path d="M 404.754837 126.214729 
L 404.754837 64.7487 
" clip-path="url(#pbc873f1786)" style="fill: none; stroke: #2d6a4f; stroke-width: 0.65"/>
    <path d="M 407.375364 126.214729 
L 407.375364 72.154251 
" clip-path="url(#pbc873f1786)" style="fill: none; stroke: #2d6a4f; stroke-width: 0.65"/>
   </g>
   <g id="patch_12">
    <path d="M 300.064802 152.434187 
L 300.064802 11.062187 
" style="fill: none; stroke: #222222; stroke-width: 0.7; stroke-linejoin: miter; stroke-linecap: square"/>
   </g>
   <g id="patch_13">
    <path d="M 300.064802 152.434187 
L 412.485391 152.434187 
" style="fill: none; stroke: #222222; stroke-width: 0.7; stroke-linejoin: miter; stroke-linecap: square"/>
   </g>
   <g id="text_23">
    <!-- (c) -->
    <g transform="translate(301.189008 19.860565) scale(0.09 -0.09)">
     <defs>
      <path id="TimesNewRomanPS-BoldMT-63" d="M 2600 753 
L 2697 678 
Q 2491 291 2183 101 
Q 1875 -88 1528 -88 
Q 944 -88 594 353 
Q 244 794 244 1413 
Q 244 2009 563 2463 
Q 947 3009 1622 3009 
Q 2075 3009 2342 2781 
Q 2609 2553 2609 2272 
Q 2609 2094 2501 1987 
Q 2394 1881 2219 1881 
Q 2034 1881 1914 2003 
Q 1794 2125 1766 2438 
Q 1747 2634 1675 2713 
Q 1603 2791 1506 2791 
Q 1356 2791 1250 2631 
Q 1088 2391 1088 1894 
Q 1088 1481 1219 1104 
Q 1350 728 1578 544 
Q 1750 409 1984 409 
Q 2138 409 2275 481 
Q 2413 553 2600 753 
z
" transform="scale(0.015625)"/>
     </defs>
     <use xlink:href="#TimesNewRomanPS-BoldMT-28"/>
     <use xlink:href="#TimesNewRomanPS-BoldMT-63" transform="translate(33.300781 0)"/>
     <use xlink:href="#TimesNewRomanPS-BoldMT-29" transform="translate(77.685547 0)"/>
    </g>
   </g>
   <g id="text_24">
    <!-- Absolute returns -->
    <g transform="translate(328.064393 8.062187) scale(0.085 -0.085)">
     <defs>
      <path id="TimesNewRomanPSMT-62" d="M 984 2369 
Q 1400 2947 1881 2947 
Q 2322 2947 2650 2570 
Q 2978 2194 2978 1541 
Q 2978 778 2472 313 
Q 2038 -88 1503 -88 
Q 1253 -88 995 3 
Q 738 94 469 275 
L 469 3241 
Q 469 3728 445 3840 
Q 422 3953 372 3993 
Q 322 4034 247 4034 
Q 159 4034 28 3984 
L -16 4094 
L 844 4444 
L 984 4444 
L 984 2369 
z
M 984 2169 
L 984 456 
Q 1144 300 1314 220 
Q 1484 141 1663 141 
Q 1947 141 2192 453 
Q 2438 766 2438 1363 
Q 2438 1913 2192 2208 
Q 1947 2503 1634 2503 
Q 1469 2503 1303 2419 
Q 1178 2356 984 2169 
z
" transform="scale(0.015625)"/>
      <path id="TimesNewRomanPSMT-6f" d="M 1600 2947 
Q 2250 2947 2644 2453 
Q 2978 2031 2978 1484 
Q 2978 1100 2793 706 
Q 2609 313 2286 112 
Q 1963 -88 1566 -88 
Q 919 -88 538 428 
Q 216 863 216 1403 
Q 216 1797 411 2186 
Q 606 2575 925 2761 
Q 1244 2947 1600 2947 
z
M 1503 2744 
Q 1338 2744 1170 2645 
Q 1003 2547 900 2300 
Q 797 2053 797 1666 
Q 797 1041 1045 587 
Q 1294 134 1700 134 
Q 2003 134 2200 384 
Q 2397 634 2397 1244 
Q 2397 2006 2069 2444 
Q 1847 2744 1503 2744 
z
" transform="scale(0.015625)"/>
      <path id="TimesNewRomanPSMT-6c" d="M 1184 4444 
L 1184 647 
Q 1184 378 1223 290 
Q 1263 203 1344 158 
Q 1425 113 1647 113 
L 1647 0 
L 244 0 
L 244 113 
Q 441 113 512 153 
Q 584 194 625 287 
Q 666 381 666 647 
L 666 3247 
Q 666 3731 644 3842 
Q 622 3953 573 3993 
Q 525 4034 450 4034 
Q 369 4034 244 3984 
L 191 4094 
L 1044 4444 
L 1184 4444 
z
" transform="scale(0.015625)"/>
     </defs>
     <use xlink:href="#TimesNewRomanPSMT-41"/>
     <use xlink:href="#TimesNewRomanPSMT-62" transform="translate(72.216797 0)"/>
     <use xlink:href="#TimesNewRomanPSMT-73" transform="translate(122.216797 0)"/>
     <use xlink:href="#TimesNewRomanPSMT-6f" transform="translate(161.132812 0)"/>
     <use xlink:href="#TimesNewRomanPSMT-6c" transform="translate(211.132812 0)"/>
     <use xlink:href="#TimesNewRomanPSMT-75" transform="translate(238.916016 0)"/>
     <use xlink:href="#TimesNewRomanPSMT-74" transform="translate(288.916016 0)"/>
     <use xlink:href="#TimesNewRomanPSMT-65" transform="translate(316.699219 0)"/>
     <use xlink:href="#TimesNewRomanPSMT-20" transform="translate(361.083984 0)"/>
     <use xlink:href="#TimesNewRomanPSMT-72" transform="translate(386.083984 0)"/>
     <use xlink:href="#TimesNewRomanPSMT-65" transform="translate(419.384766 0)"/>
     <use xlink:href="#TimesNewRomanPSMT-74" transform="translate(463.769531 0)"/>
     <use xlink:href="#TimesNewRomanPSMT-75" transform="translate(491.552734 0)"/>
     <use xlink:href="#TimesNewRomanPSMT-72" transform="translate(541.552734 0)"/>
     <use xlink:href="#TimesNewRomanPSMT-6e" transform="translate(574.853516 0)"/>
     <use xlink:href="#TimesNewRomanPSMT-73" transform="translate(624.853516 0)"/>
    </g>
   </g>
  </g>
 </g>
 <defs>
  <clipPath id="pf2f4458b65">
   <rect x="30.255391" y="11.062187" width="112.420588" height="141.372"/>
  </clipPath>
  <clipPath id="pf1e7f22c71">
   <rect x="165.160097" y="11.062187" width="112.420588" height="141.372"/>
  </clipPath>
  <clipPath id="pbc873f1786">
   <rect x="300.064802" y="11.062187" width="112.420588" height="141.372"/>
  </clipPath>
 </defs>
</svg>
